<mxfile host="app.diagrams.net" modified="2023-05-17T18:46:00.602Z" agent="Mozilla/5.0 (Windows NT 10.0; Win64; x64) AppleWebKit/537.36 (KHTML, like Gecko) Chrome/113.0.0.0 Safari/537.36" etag="UIZ7ZWAdcAZNH-5-jvPn" version="21.3.0" type="device">
  <diagram id="R2lEEEUBdFMjLlhIrx00" name="Page-1">
    <mxGraphModel dx="2049" dy="1137" grid="1" gridSize="10" guides="1" tooltips="1" connect="1" arrows="1" fold="1" page="1" pageScale="1" pageWidth="1920" pageHeight="1200" math="0" shadow="0" extFonts="Permanent Marker^https://fonts.googleapis.com/css?family=Permanent+Marker">
      <root>
        <mxCell id="0" />
        <mxCell id="1" parent="0" />
        <mxCell id="X9WCBh2QZouLG1bWIAwy-38" value="UtentiRegistrati" style="whiteSpace=wrap;html=1;align=center;" parent="1" vertex="1">
          <mxGeometry x="610" y="295" width="100" height="40" as="geometry" />
        </mxCell>
        <mxCell id="X9WCBh2QZouLG1bWIAwy-39" value="Playlist" style="whiteSpace=wrap;html=1;align=center;" parent="1" vertex="1">
          <mxGeometry x="1200" y="295" width="100" height="40" as="geometry" />
        </mxCell>
        <mxCell id="X9WCBh2QZouLG1bWIAwy-41" value="Canzoni" style="whiteSpace=wrap;html=1;align=center;" parent="1" vertex="1">
          <mxGeometry x="1200" y="630" width="100" height="40" as="geometry" />
        </mxCell>
        <mxCell id="X9WCBh2QZouLG1bWIAwy-42" value="EmozioniCanzone" style="whiteSpace=wrap;html=1;align=center;" parent="1" vertex="1">
          <mxGeometry x="765" y="916.25" width="160" height="60" as="geometry" />
        </mxCell>
        <mxCell id="X9WCBh2QZouLG1bWIAwy-43" value="" style="endArrow=none;html=1;rounded=0;startArrow=oval;startFill=1;" parent="1" target="X9WCBh2QZouLG1bWIAwy-38" edge="1">
          <mxGeometry relative="1" as="geometry">
            <mxPoint x="560" y="345" as="sourcePoint" />
            <mxPoint x="630" y="335" as="targetPoint" />
          </mxGeometry>
        </mxCell>
        <mxCell id="X9WCBh2QZouLG1bWIAwy-44" value="" style="endArrow=none;html=1;rounded=0;startArrow=oval;startFill=0;" parent="1" target="X9WCBh2QZouLG1bWIAwy-38" edge="1">
          <mxGeometry relative="1" as="geometry">
            <mxPoint x="560" y="315" as="sourcePoint" />
            <mxPoint x="580" y="295" as="targetPoint" />
          </mxGeometry>
        </mxCell>
        <mxCell id="X9WCBh2QZouLG1bWIAwy-49" value="" style="endArrow=none;html=1;rounded=0;startArrow=oval;startFill=0;" parent="1" target="X9WCBh2QZouLG1bWIAwy-38" edge="1">
          <mxGeometry relative="1" as="geometry">
            <mxPoint x="560" y="285" as="sourcePoint" />
            <mxPoint x="600" y="275" as="targetPoint" />
          </mxGeometry>
        </mxCell>
        <mxCell id="X9WCBh2QZouLG1bWIAwy-52" value="" style="endArrow=none;html=1;rounded=0;startArrow=oval;startFill=0;entryX=0.25;entryY=0;entryDx=0;entryDy=0;" parent="1" target="X9WCBh2QZouLG1bWIAwy-38" edge="1">
          <mxGeometry relative="1" as="geometry">
            <mxPoint x="620" y="250" as="sourcePoint" />
            <mxPoint x="630" y="300" as="targetPoint" />
          </mxGeometry>
        </mxCell>
        <mxCell id="X9WCBh2QZouLG1bWIAwy-54" value="codiceFiscale" style="text;html=1;align=center;verticalAlign=middle;resizable=0;points=[];autosize=1;strokeColor=none;fillColor=none;" parent="1" vertex="1">
          <mxGeometry x="470" y="335" width="100" height="30" as="geometry" />
        </mxCell>
        <mxCell id="X9WCBh2QZouLG1bWIAwy-55" value="nome" style="text;html=1;align=center;verticalAlign=middle;resizable=0;points=[];autosize=1;strokeColor=none;fillColor=none;" parent="1" vertex="1">
          <mxGeometry x="510" y="300" width="50" height="30" as="geometry" />
        </mxCell>
        <mxCell id="X9WCBh2QZouLG1bWIAwy-56" value="cognome" style="text;html=1;align=center;verticalAlign=middle;resizable=0;points=[];autosize=1;strokeColor=none;fillColor=none;" parent="1" vertex="1">
          <mxGeometry x="490" y="270" width="70" height="30" as="geometry" />
        </mxCell>
        <mxCell id="X9WCBh2QZouLG1bWIAwy-58" value="email" style="text;html=1;align=center;verticalAlign=middle;resizable=0;points=[];autosize=1;strokeColor=none;fillColor=none;" parent="1" vertex="1">
          <mxGeometry x="520" y="230" width="50" height="30" as="geometry" />
        </mxCell>
        <mxCell id="X9WCBh2QZouLG1bWIAwy-59" value="password" style="text;html=1;align=center;verticalAlign=middle;resizable=0;points=[];autosize=1;strokeColor=none;fillColor=none;" parent="1" vertex="1">
          <mxGeometry x="580" y="220" width="70" height="30" as="geometry" />
        </mxCell>
        <mxCell id="X9WCBh2QZouLG1bWIAwy-60" value="" style="endArrow=none;html=1;rounded=0;startArrow=oval;startFill=1;exitX=-0.029;exitY=1.033;exitDx=0;exitDy=0;exitPerimeter=0;" parent="1" target="X9WCBh2QZouLG1bWIAwy-39" edge="1" source="X9WCBh2QZouLG1bWIAwy-61">
          <mxGeometry relative="1" as="geometry">
            <mxPoint x="1337.5" y="355" as="sourcePoint" />
            <mxPoint x="1177.5" y="355" as="targetPoint" />
          </mxGeometry>
        </mxCell>
        <mxCell id="X9WCBh2QZouLG1bWIAwy-61" value="idPlaylist" style="text;html=1;align=center;verticalAlign=middle;resizable=0;points=[];autosize=1;strokeColor=none;fillColor=none;" parent="1" vertex="1">
          <mxGeometry x="1340" y="230" width="70" height="30" as="geometry" />
        </mxCell>
        <mxCell id="X9WCBh2QZouLG1bWIAwy-63" value="" style="endArrow=none;html=1;rounded=0;startArrow=oval;startFill=0;entryX=0;entryY=0.25;entryDx=0;entryDy=0;" parent="1" target="X9WCBh2QZouLG1bWIAwy-41" edge="1">
          <mxGeometry relative="1" as="geometry">
            <mxPoint x="1150" y="640" as="sourcePoint" />
            <mxPoint x="1180" y="680" as="targetPoint" />
          </mxGeometry>
        </mxCell>
        <mxCell id="X9WCBh2QZouLG1bWIAwy-64" value="" style="endArrow=none;html=1;rounded=0;startArrow=oval;startFill=0;entryX=0;entryY=0.75;entryDx=0;entryDy=0;" parent="1" target="X9WCBh2QZouLG1bWIAwy-41" edge="1">
          <mxGeometry relative="1" as="geometry">
            <mxPoint x="1150" y="660" as="sourcePoint" />
            <mxPoint x="1240" y="715" as="targetPoint" />
          </mxGeometry>
        </mxCell>
        <mxCell id="X9WCBh2QZouLG1bWIAwy-65" value="" style="endArrow=none;html=1;rounded=0;startArrow=oval;startFill=0;" parent="1" target="X9WCBh2QZouLG1bWIAwy-41" edge="1">
          <mxGeometry relative="1" as="geometry">
            <mxPoint x="1160" y="690" as="sourcePoint" />
            <mxPoint x="1250" y="720" as="targetPoint" />
          </mxGeometry>
        </mxCell>
        <mxCell id="X9WCBh2QZouLG1bWIAwy-67" value="titolo" style="text;html=1;align=center;verticalAlign=middle;resizable=0;points=[];autosize=1;strokeColor=none;fillColor=none;" parent="1" vertex="1">
          <mxGeometry x="1095" y="620" width="50" height="30" as="geometry" />
        </mxCell>
        <mxCell id="X9WCBh2QZouLG1bWIAwy-68" value="autore" style="text;html=1;align=center;verticalAlign=middle;resizable=0;points=[];autosize=1;strokeColor=none;fillColor=none;" parent="1" vertex="1">
          <mxGeometry x="1090" y="650" width="60" height="30" as="geometry" />
        </mxCell>
        <mxCell id="X9WCBh2QZouLG1bWIAwy-70" value="" style="endArrow=none;html=1;rounded=0;startArrow=oval;startFill=1;" parent="1" edge="1">
          <mxGeometry relative="1" as="geometry">
            <mxPoint x="1180" y="620" as="sourcePoint" />
            <mxPoint x="1180" y="680" as="targetPoint" />
          </mxGeometry>
        </mxCell>
        <mxCell id="X9WCBh2QZouLG1bWIAwy-71" value="anno" style="text;html=1;align=center;verticalAlign=middle;resizable=0;points=[];autosize=1;strokeColor=none;fillColor=none;" parent="1" vertex="1">
          <mxGeometry x="1110" y="680" width="50" height="30" as="geometry" />
        </mxCell>
        <mxCell id="X9WCBh2QZouLG1bWIAwy-78" value="" style="endArrow=none;html=1;rounded=0;startArrow=oval;startFill=1;" parent="1" target="X9WCBh2QZouLG1bWIAwy-42" edge="1">
          <mxGeometry relative="1" as="geometry">
            <mxPoint x="780" y="1030" as="sourcePoint" />
            <mxPoint x="755" y="993.75" as="targetPoint" />
          </mxGeometry>
        </mxCell>
        <mxCell id="X9WCBh2QZouLG1bWIAwy-79" value="idValutazione" style="text;html=1;align=center;verticalAlign=middle;resizable=0;points=[];autosize=1;strokeColor=none;fillColor=none;" parent="1" vertex="1">
          <mxGeometry x="710" y="1033.75" width="90" height="30" as="geometry" />
        </mxCell>
        <mxCell id="X9WCBh2QZouLG1bWIAwy-85" value="" style="endArrow=none;html=1;rounded=0;startArrow=oval;startFill=0;" parent="1" target="X9WCBh2QZouLG1bWIAwy-42" edge="1">
          <mxGeometry relative="1" as="geometry">
            <mxPoint x="720" y="1000" as="sourcePoint" />
            <mxPoint x="775" y="786.25" as="targetPoint" />
          </mxGeometry>
        </mxCell>
        <mxCell id="X9WCBh2QZouLG1bWIAwy-86" value="" style="endArrow=none;html=1;rounded=0;startArrow=oval;startFill=0;" parent="1" source="X9WCBh2QZouLG1bWIAwy-115" target="X9WCBh2QZouLG1bWIAwy-42" edge="1">
          <mxGeometry relative="1" as="geometry">
            <mxPoint x="1000" y="908.75" as="sourcePoint" />
            <mxPoint x="1025" y="866.25" as="targetPoint" />
          </mxGeometry>
        </mxCell>
        <mxCell id="X9WCBh2QZouLG1bWIAwy-87" value="" style="endArrow=none;html=1;rounded=0;startArrow=oval;startFill=0;" parent="1" source="X9WCBh2QZouLG1bWIAwy-116" target="X9WCBh2QZouLG1bWIAwy-42" edge="1">
          <mxGeometry relative="1" as="geometry">
            <mxPoint x="990" y="938.75" as="sourcePoint" />
            <mxPoint x="1000" y="876.25" as="targetPoint" />
          </mxGeometry>
        </mxCell>
        <mxCell id="X9WCBh2QZouLG1bWIAwy-88" value="" style="endArrow=none;html=1;rounded=0;startArrow=oval;startFill=0;" parent="1" target="X9WCBh2QZouLG1bWIAwy-42" edge="1">
          <mxGeometry relative="1" as="geometry">
            <mxPoint x="975" y="910" as="sourcePoint" />
            <mxPoint x="970" y="836.25" as="targetPoint" />
          </mxGeometry>
        </mxCell>
        <mxCell id="X9WCBh2QZouLG1bWIAwy-89" value="" style="endArrow=none;html=1;rounded=0;startArrow=oval;startFill=0;" parent="1" source="X9WCBh2QZouLG1bWIAwy-114" target="X9WCBh2QZouLG1bWIAwy-42" edge="1">
          <mxGeometry relative="1" as="geometry">
            <mxPoint x="990" y="888.75" as="sourcePoint" />
            <mxPoint x="980" y="886.25" as="targetPoint" />
          </mxGeometry>
        </mxCell>
        <mxCell id="X9WCBh2QZouLG1bWIAwy-90" value="" style="endArrow=none;html=1;rounded=0;startArrow=oval;startFill=0;" parent="1" source="X9WCBh2QZouLG1bWIAwy-112" target="X9WCBh2QZouLG1bWIAwy-42" edge="1">
          <mxGeometry relative="1" as="geometry">
            <mxPoint x="970" y="848.75" as="sourcePoint" />
            <mxPoint x="940" y="836.25" as="targetPoint" />
          </mxGeometry>
        </mxCell>
        <mxCell id="X9WCBh2QZouLG1bWIAwy-91" value="" style="endArrow=none;html=1;rounded=0;startArrow=oval;startFill=0;" parent="1" source="X9WCBh2QZouLG1bWIAwy-111" target="X9WCBh2QZouLG1bWIAwy-42" edge="1">
          <mxGeometry relative="1" as="geometry">
            <mxPoint x="900" y="838.75" as="sourcePoint" />
            <mxPoint x="925" y="866.25" as="targetPoint" />
          </mxGeometry>
        </mxCell>
        <mxCell id="X9WCBh2QZouLG1bWIAwy-92" value="" style="endArrow=none;html=1;rounded=0;startArrow=oval;startFill=0;" parent="1" source="X9WCBh2QZouLG1bWIAwy-110" target="X9WCBh2QZouLG1bWIAwy-42" edge="1">
          <mxGeometry relative="1" as="geometry">
            <mxPoint x="940" y="870" as="sourcePoint" />
            <mxPoint x="880" y="836.25" as="targetPoint" />
          </mxGeometry>
        </mxCell>
        <mxCell id="X9WCBh2QZouLG1bWIAwy-93" value="" style="endArrow=none;html=1;rounded=0;startArrow=oval;startFill=0;" parent="1" source="X9WCBh2QZouLG1bWIAwy-109" target="X9WCBh2QZouLG1bWIAwy-42" edge="1">
          <mxGeometry relative="1" as="geometry">
            <mxPoint x="830" y="828.75" as="sourcePoint" />
            <mxPoint x="880" y="816.25" as="targetPoint" />
          </mxGeometry>
        </mxCell>
        <mxCell id="X9WCBh2QZouLG1bWIAwy-94" value="" style="endArrow=none;html=1;rounded=0;startArrow=oval;startFill=0;" parent="1" source="X9WCBh2QZouLG1bWIAwy-108" target="X9WCBh2QZouLG1bWIAwy-42" edge="1">
          <mxGeometry relative="1" as="geometry">
            <mxPoint x="800" y="836.75" as="sourcePoint" />
            <mxPoint x="830" y="786.25" as="targetPoint" />
          </mxGeometry>
        </mxCell>
        <mxCell id="X9WCBh2QZouLG1bWIAwy-95" value="" style="endArrow=none;html=1;rounded=0;startArrow=oval;startFill=0;" parent="1" source="X9WCBh2QZouLG1bWIAwy-106" target="X9WCBh2QZouLG1bWIAwy-42" edge="1">
          <mxGeometry relative="1" as="geometry">
            <mxPoint x="750" y="856.75" as="sourcePoint" />
            <mxPoint x="750" y="816.25" as="targetPoint" />
          </mxGeometry>
        </mxCell>
        <mxCell id="X9WCBh2QZouLG1bWIAwy-96" value="" style="endArrow=none;html=1;rounded=0;startArrow=oval;startFill=0;" parent="1" source="X9WCBh2QZouLG1bWIAwy-107" target="X9WCBh2QZouLG1bWIAwy-42" edge="1">
          <mxGeometry relative="1" as="geometry">
            <mxPoint x="770" y="838.75" as="sourcePoint" />
            <mxPoint x="830" y="856.25" as="targetPoint" />
          </mxGeometry>
        </mxCell>
        <mxCell id="X9WCBh2QZouLG1bWIAwy-97" value="" style="endArrow=none;html=1;rounded=0;startArrow=oval;startFill=0;" parent="1" source="X9WCBh2QZouLG1bWIAwy-105" target="X9WCBh2QZouLG1bWIAwy-42" edge="1">
          <mxGeometry relative="1" as="geometry">
            <mxPoint x="730" y="878.75" as="sourcePoint" />
            <mxPoint x="820" y="896.25" as="targetPoint" />
          </mxGeometry>
        </mxCell>
        <mxCell id="X9WCBh2QZouLG1bWIAwy-98" value="" style="endArrow=none;html=1;rounded=0;startArrow=oval;startFill=0;" parent="1" source="X9WCBh2QZouLG1bWIAwy-117" target="X9WCBh2QZouLG1bWIAwy-42" edge="1">
          <mxGeometry relative="1" as="geometry">
            <mxPoint x="990" y="958.75" as="sourcePoint" />
            <mxPoint x="965" y="826.25" as="targetPoint" />
          </mxGeometry>
        </mxCell>
        <mxCell id="X9WCBh2QZouLG1bWIAwy-99" value="" style="endArrow=none;html=1;rounded=0;startArrow=oval;startFill=0;" parent="1" source="X9WCBh2QZouLG1bWIAwy-120" target="X9WCBh2QZouLG1bWIAwy-42" edge="1">
          <mxGeometry relative="1" as="geometry">
            <mxPoint x="880" y="1038.75" as="sourcePoint" />
            <mxPoint x="920" y="1051.25" as="targetPoint" />
          </mxGeometry>
        </mxCell>
        <mxCell id="X9WCBh2QZouLG1bWIAwy-100" value="" style="endArrow=none;html=1;rounded=0;startArrow=oval;startFill=0;" parent="1" source="X9WCBh2QZouLG1bWIAwy-118" target="X9WCBh2QZouLG1bWIAwy-42" edge="1">
          <mxGeometry relative="1" as="geometry">
            <mxPoint x="965" y="978.75" as="sourcePoint" />
            <mxPoint x="1000" y="1011.25" as="targetPoint" />
          </mxGeometry>
        </mxCell>
        <mxCell id="X9WCBh2QZouLG1bWIAwy-101" value="" style="endArrow=none;html=1;rounded=0;startArrow=oval;startFill=0;" parent="1" source="X9WCBh2QZouLG1bWIAwy-121" target="X9WCBh2QZouLG1bWIAwy-42" edge="1">
          <mxGeometry relative="1" as="geometry">
            <mxPoint x="910" y="1028.75" as="sourcePoint" />
            <mxPoint x="970" y="1071.25" as="targetPoint" />
          </mxGeometry>
        </mxCell>
        <mxCell id="X9WCBh2QZouLG1bWIAwy-103" value="" style="endArrow=none;html=1;rounded=0;startArrow=oval;startFill=0;" parent="1" source="X9WCBh2QZouLG1bWIAwy-119" target="X9WCBh2QZouLG1bWIAwy-42" edge="1">
          <mxGeometry relative="1" as="geometry">
            <mxPoint x="950" y="1008.75" as="sourcePoint" />
            <mxPoint x="970" y="1056.25" as="targetPoint" />
          </mxGeometry>
        </mxCell>
        <mxCell id="X9WCBh2QZouLG1bWIAwy-104" value="amazement" style="text;html=1;align=center;verticalAlign=middle;resizable=0;points=[];autosize=1;strokeColor=none;fillColor=none;" parent="1" vertex="1">
          <mxGeometry x="630" y="991.25" width="90" height="30" as="geometry" />
        </mxCell>
        <mxCell id="X9WCBh2QZouLG1bWIAwy-105" value="amazement-notes" style="text;html=1;align=center;verticalAlign=middle;resizable=0;points=[];autosize=1;strokeColor=none;fillColor=none;" parent="1" vertex="1">
          <mxGeometry x="590" y="951.25" width="120" height="30" as="geometry" />
        </mxCell>
        <mxCell id="X9WCBh2QZouLG1bWIAwy-106" value="solemnity" style="text;html=1;align=center;verticalAlign=middle;resizable=0;points=[];autosize=1;strokeColor=none;fillColor=none;" parent="1" vertex="1">
          <mxGeometry x="630" y="916.25" width="70" height="30" as="geometry" />
        </mxCell>
        <mxCell id="X9WCBh2QZouLG1bWIAwy-107" value="solemnity-notes" style="text;html=1;align=center;verticalAlign=middle;resizable=0;points=[];autosize=1;strokeColor=none;fillColor=none;" parent="1" vertex="1">
          <mxGeometry x="630" y="886.25" width="110" height="30" as="geometry" />
        </mxCell>
        <mxCell id="X9WCBh2QZouLG1bWIAwy-108" value="tenderness" style="text;html=1;align=center;verticalAlign=middle;resizable=0;points=[];autosize=1;strokeColor=none;fillColor=none;" parent="1" vertex="1">
          <mxGeometry x="695" y="863.75" width="80" height="30" as="geometry" />
        </mxCell>
        <mxCell id="X9WCBh2QZouLG1bWIAwy-109" value="tenderness-notes" style="text;html=1;align=center;verticalAlign=middle;resizable=0;points=[];autosize=1;strokeColor=none;fillColor=none;" parent="1" vertex="1">
          <mxGeometry x="725" y="838.75" width="120" height="30" as="geometry" />
        </mxCell>
        <mxCell id="X9WCBh2QZouLG1bWIAwy-110" value="nostalgia" style="text;html=1;align=center;verticalAlign=middle;resizable=0;points=[];autosize=1;strokeColor=none;fillColor=none;" parent="1" vertex="1">
          <mxGeometry x="870" y="838.75" width="70" height="30" as="geometry" />
        </mxCell>
        <mxCell id="X9WCBh2QZouLG1bWIAwy-111" value="nostalgia-notes" style="text;html=1;align=center;verticalAlign=middle;resizable=0;points=[];autosize=1;strokeColor=none;fillColor=none;" parent="1" vertex="1">
          <mxGeometry x="925" y="838.75" width="100" height="30" as="geometry" />
        </mxCell>
        <mxCell id="X9WCBh2QZouLG1bWIAwy-112" value="calmness" style="text;html=1;align=center;verticalAlign=middle;resizable=0;points=[];autosize=1;strokeColor=none;fillColor=none;" parent="1" vertex="1">
          <mxGeometry x="965" y="863.75" width="70" height="30" as="geometry" />
        </mxCell>
        <mxCell id="X9WCBh2QZouLG1bWIAwy-113" value="calmness-notes" style="text;html=1;align=center;verticalAlign=middle;resizable=0;points=[];autosize=1;strokeColor=none;fillColor=none;" parent="1" vertex="1">
          <mxGeometry x="970" y="886.25" width="110" height="30" as="geometry" />
        </mxCell>
        <mxCell id="X9WCBh2QZouLG1bWIAwy-114" value="power" style="text;html=1;align=center;verticalAlign=middle;resizable=0;points=[];autosize=1;strokeColor=none;fillColor=none;" parent="1" vertex="1">
          <mxGeometry x="990" y="910" width="60" height="30" as="geometry" />
        </mxCell>
        <mxCell id="X9WCBh2QZouLG1bWIAwy-115" value="power-notes" style="text;html=1;align=center;verticalAlign=middle;resizable=0;points=[];autosize=1;strokeColor=none;fillColor=none;" parent="1" vertex="1">
          <mxGeometry x="985" y="940" width="90" height="30" as="geometry" />
        </mxCell>
        <mxCell id="X9WCBh2QZouLG1bWIAwy-116" value="joy" style="text;html=1;align=center;verticalAlign=middle;resizable=0;points=[];autosize=1;strokeColor=none;fillColor=none;" parent="1" vertex="1">
          <mxGeometry x="985" y="961.25" width="40" height="30" as="geometry" />
        </mxCell>
        <mxCell id="X9WCBh2QZouLG1bWIAwy-117" value="joy-notes" style="text;html=1;align=center;verticalAlign=middle;resizable=0;points=[];autosize=1;strokeColor=none;fillColor=none;" parent="1" vertex="1">
          <mxGeometry x="970" y="981.25" width="70" height="30" as="geometry" />
        </mxCell>
        <mxCell id="X9WCBh2QZouLG1bWIAwy-118" value="tension" style="text;html=1;align=center;verticalAlign=middle;resizable=0;points=[];autosize=1;strokeColor=none;fillColor=none;" parent="1" vertex="1">
          <mxGeometry x="940" y="1000" width="60" height="30" as="geometry" />
        </mxCell>
        <mxCell id="X9WCBh2QZouLG1bWIAwy-119" value="tension-notes" style="text;html=1;align=center;verticalAlign=middle;resizable=0;points=[];autosize=1;strokeColor=none;fillColor=none;" parent="1" vertex="1">
          <mxGeometry x="890" y="1011.25" width="100" height="30" as="geometry" />
        </mxCell>
        <mxCell id="X9WCBh2QZouLG1bWIAwy-120" value="sadness-notes" style="text;html=1;align=center;verticalAlign=middle;resizable=0;points=[];autosize=1;strokeColor=none;fillColor=none;" parent="1" vertex="1">
          <mxGeometry x="810" y="1051.25" width="100" height="30" as="geometry" />
        </mxCell>
        <mxCell id="X9WCBh2QZouLG1bWIAwy-121" value="sadness" style="text;html=1;align=center;verticalAlign=middle;resizable=0;points=[];autosize=1;strokeColor=none;fillColor=none;" parent="1" vertex="1">
          <mxGeometry x="860" y="1033.75" width="70" height="30" as="geometry" />
        </mxCell>
        <mxCell id="X9WCBh2QZouLG1bWIAwy-124" value="CreaPlaylist" style="shape=rhombus;perimeter=rhombusPerimeter;whiteSpace=wrap;html=1;align=center;" parent="1" vertex="1">
          <mxGeometry x="910" y="285" width="120" height="60" as="geometry" />
        </mxCell>
        <mxCell id="X9WCBh2QZouLG1bWIAwy-125" value="" style="endArrow=none;html=1;rounded=0;" parent="1" source="X9WCBh2QZouLG1bWIAwy-38" target="X9WCBh2QZouLG1bWIAwy-124" edge="1">
          <mxGeometry relative="1" as="geometry">
            <mxPoint x="750" y="350" as="sourcePoint" />
            <mxPoint x="910" y="350" as="targetPoint" />
          </mxGeometry>
        </mxCell>
        <mxCell id="X9WCBh2QZouLG1bWIAwy-128" value="0,N" style="edgeLabel;html=1;align=center;verticalAlign=middle;resizable=0;points=[];" parent="X9WCBh2QZouLG1bWIAwy-125" vertex="1" connectable="0">
          <mxGeometry x="-0.75" relative="1" as="geometry">
            <mxPoint as="offset" />
          </mxGeometry>
        </mxCell>
        <mxCell id="X9WCBh2QZouLG1bWIAwy-126" value="" style="endArrow=none;html=1;rounded=0;" parent="1" source="X9WCBh2QZouLG1bWIAwy-124" target="X9WCBh2QZouLG1bWIAwy-39" edge="1">
          <mxGeometry relative="1" as="geometry">
            <mxPoint x="1070" y="310" as="sourcePoint" />
            <mxPoint x="1230" y="310" as="targetPoint" />
          </mxGeometry>
        </mxCell>
        <mxCell id="X9WCBh2QZouLG1bWIAwy-129" value="1,1" style="edgeLabel;html=1;align=center;verticalAlign=middle;resizable=0;points=[];" parent="X9WCBh2QZouLG1bWIAwy-126" vertex="1" connectable="0">
          <mxGeometry x="0.6706" y="-1" relative="1" as="geometry">
            <mxPoint as="offset" />
          </mxGeometry>
        </mxCell>
        <mxCell id="X9WCBh2QZouLG1bWIAwy-131" style="edgeStyle=orthogonalEdgeStyle;rounded=0;orthogonalLoop=1;jettySize=auto;html=1;startArrow=none;startFill=0;endArrow=none;endFill=0;" parent="1" source="X9WCBh2QZouLG1bWIAwy-130" target="X9WCBh2QZouLG1bWIAwy-39" edge="1">
          <mxGeometry relative="1" as="geometry" />
        </mxCell>
        <mxCell id="X9WCBh2QZouLG1bWIAwy-134" value="0,N" style="edgeLabel;html=1;align=center;verticalAlign=middle;resizable=0;points=[];" parent="X9WCBh2QZouLG1bWIAwy-131" vertex="1" connectable="0">
          <mxGeometry x="0.3217" y="1" relative="1" as="geometry">
            <mxPoint as="offset" />
          </mxGeometry>
        </mxCell>
        <mxCell id="X9WCBh2QZouLG1bWIAwy-132" style="edgeStyle=orthogonalEdgeStyle;rounded=0;orthogonalLoop=1;jettySize=auto;html=1;startArrow=none;startFill=0;endArrow=none;endFill=0;" parent="1" source="X9WCBh2QZouLG1bWIAwy-130" target="X9WCBh2QZouLG1bWIAwy-41" edge="1">
          <mxGeometry relative="1" as="geometry" />
        </mxCell>
        <mxCell id="X9WCBh2QZouLG1bWIAwy-133" value="0,N" style="edgeLabel;html=1;align=center;verticalAlign=middle;resizable=0;points=[];" parent="X9WCBh2QZouLG1bWIAwy-132" vertex="1" connectable="0">
          <mxGeometry x="0.6667" y="1" relative="1" as="geometry">
            <mxPoint as="offset" />
          </mxGeometry>
        </mxCell>
        <mxCell id="X9WCBh2QZouLG1bWIAwy-130" value="Contiene" style="shape=rhombus;perimeter=rhombusPerimeter;whiteSpace=wrap;html=1;align=center;" parent="1" vertex="1">
          <mxGeometry x="1190" y="450" width="120" height="60" as="geometry" />
        </mxCell>
        <mxCell id="X9WCBh2QZouLG1bWIAwy-140" style="edgeStyle=orthogonalEdgeStyle;rounded=0;orthogonalLoop=1;jettySize=auto;html=1;startArrow=none;startFill=0;endArrow=none;endFill=0;" parent="1" source="X9WCBh2QZouLG1bWIAwy-137" target="X9WCBh2QZouLG1bWIAwy-42" edge="1">
          <mxGeometry relative="1" as="geometry" />
        </mxCell>
        <mxCell id="X9WCBh2QZouLG1bWIAwy-137" value="ValutaEmozioni" style="shape=rhombus;perimeter=rhombusPerimeter;whiteSpace=wrap;html=1;align=center;" parent="1" vertex="1">
          <mxGeometry x="785" y="750" width="120" height="60" as="geometry" />
        </mxCell>
        <mxCell id="X9WCBh2QZouLG1bWIAwy-138" value="" style="endArrow=none;html=1;rounded=0;entryX=0;entryY=0.5;entryDx=0;entryDy=0;" parent="1" source="X9WCBh2QZouLG1bWIAwy-38" target="X9WCBh2QZouLG1bWIAwy-137" edge="1">
          <mxGeometry relative="1" as="geometry">
            <mxPoint x="630" y="430" as="sourcePoint" />
            <mxPoint x="660" y="780" as="targetPoint" />
            <Array as="points">
              <mxPoint x="660" y="780" />
            </Array>
          </mxGeometry>
        </mxCell>
        <mxCell id="X9WCBh2QZouLG1bWIAwy-141" value="0,N" style="edgeLabel;html=1;align=center;verticalAlign=middle;resizable=0;points=[];" parent="X9WCBh2QZouLG1bWIAwy-138" vertex="1" connectable="0">
          <mxGeometry x="-0.9474" relative="1" as="geometry">
            <mxPoint as="offset" />
          </mxGeometry>
        </mxCell>
        <mxCell id="X9WCBh2QZouLG1bWIAwy-142" value="1,1" style="edgeLabel;html=1;align=center;verticalAlign=middle;resizable=0;points=[];" parent="X9WCBh2QZouLG1bWIAwy-138" vertex="1" connectable="0">
          <mxGeometry x="0.9298" y="-1" relative="1" as="geometry">
            <mxPoint as="offset" />
          </mxGeometry>
        </mxCell>
        <mxCell id="X9WCBh2QZouLG1bWIAwy-139" value="" style="endArrow=none;html=1;rounded=0;entryX=0.5;entryY=1;entryDx=0;entryDy=0;" parent="1" source="X9WCBh2QZouLG1bWIAwy-137" target="X9WCBh2QZouLG1bWIAwy-41" edge="1">
          <mxGeometry relative="1" as="geometry">
            <mxPoint x="1040" y="780" as="sourcePoint" />
            <mxPoint x="1260" y="770" as="targetPoint" />
            <Array as="points">
              <mxPoint x="1250" y="780" />
            </Array>
          </mxGeometry>
        </mxCell>
        <mxCell id="X9WCBh2QZouLG1bWIAwy-143" value="0,N" style="edgeLabel;html=1;align=center;verticalAlign=middle;resizable=0;points=[];" parent="X9WCBh2QZouLG1bWIAwy-139" vertex="1" connectable="0">
          <mxGeometry x="0.8813" y="-3" relative="1" as="geometry">
            <mxPoint as="offset" />
          </mxGeometry>
        </mxCell>
        <mxCell id="X9WCBh2QZouLG1bWIAwy-144" value="1,1" style="edgeLabel;html=1;align=center;verticalAlign=middle;resizable=0;points=[];" parent="X9WCBh2QZouLG1bWIAwy-139" vertex="1" connectable="0">
          <mxGeometry x="-0.9209" y="-3" relative="1" as="geometry">
            <mxPoint y="-3" as="offset" />
          </mxGeometry>
        </mxCell>
        <mxCell id="NtJQgsT2kBxUMnVvbg84-1" value="" style="endArrow=none;html=1;rounded=0;startArrow=oval;startFill=0;" parent="1" target="X9WCBh2QZouLG1bWIAwy-39" edge="1">
          <mxGeometry relative="1" as="geometry">
            <mxPoint x="1250" y="250" as="sourcePoint" />
            <mxPoint x="1180" y="284.9971428571431" as="targetPoint" />
          </mxGeometry>
        </mxCell>
        <mxCell id="NtJQgsT2kBxUMnVvbg84-2" value="nomePlaylist" style="text;html=1;align=center;verticalAlign=middle;resizable=0;points=[];autosize=1;strokeColor=none;fillColor=none;" parent="1" vertex="1">
          <mxGeometry x="1210" y="220" width="90" height="30" as="geometry" />
        </mxCell>
        <mxCell id="C8pxyxYQxWnQxHPLgFTt-1" value="" style="endArrow=none;html=1;rounded=0;startArrow=oval;startFill=0;" parent="1" edge="1">
          <mxGeometry relative="1" as="geometry">
            <mxPoint x="570" y="250" as="sourcePoint" />
            <mxPoint x="610" y="295" as="targetPoint" />
          </mxGeometry>
        </mxCell>
        <mxCell id="C8pxyxYQxWnQxHPLgFTt-2" value="Indirizzo" style="rounded=0;whiteSpace=wrap;html=1;" parent="1" vertex="1">
          <mxGeometry x="630" y="90" width="115" height="40" as="geometry" />
        </mxCell>
        <mxCell id="C8pxyxYQxWnQxHPLgFTt-3" value="" style="endArrow=none;html=1;rounded=0;exitX=0.81;exitY=0.019;exitDx=0;exitDy=0;exitPerimeter=0;" parent="1" source="X9WCBh2QZouLG1bWIAwy-38" edge="1">
          <mxGeometry width="50" height="50" relative="1" as="geometry">
            <mxPoint x="690" y="290" as="sourcePoint" />
            <mxPoint x="690" y="240" as="targetPoint" />
          </mxGeometry>
        </mxCell>
        <mxCell id="C8pxyxYQxWnQxHPLgFTt-7" value="1:1" style="edgeLabel;html=1;align=center;verticalAlign=middle;resizable=0;points=[];" parent="C8pxyxYQxWnQxHPLgFTt-3" vertex="1" connectable="0">
          <mxGeometry x="-0.58" relative="1" as="geometry">
            <mxPoint as="offset" />
          </mxGeometry>
        </mxCell>
        <mxCell id="C8pxyxYQxWnQxHPLgFTt-4" value="Possiede" style="rhombus;whiteSpace=wrap;html=1;" parent="1" vertex="1">
          <mxGeometry x="630" y="180" width="120" height="60" as="geometry" />
        </mxCell>
        <mxCell id="C8pxyxYQxWnQxHPLgFTt-5" value="" style="endArrow=none;html=1;rounded=0;exitX=0.5;exitY=0;exitDx=0;exitDy=0;" parent="1" source="C8pxyxYQxWnQxHPLgFTt-4" edge="1">
          <mxGeometry width="50" height="50" relative="1" as="geometry">
            <mxPoint x="660" y="190" as="sourcePoint" />
            <mxPoint x="690" y="130" as="targetPoint" />
          </mxGeometry>
        </mxCell>
        <mxCell id="C8pxyxYQxWnQxHPLgFTt-8" value="1:N" style="edgeLabel;html=1;align=center;verticalAlign=middle;resizable=0;points=[];" parent="C8pxyxYQxWnQxHPLgFTt-5" vertex="1" connectable="0">
          <mxGeometry x="0.5766" y="-2" relative="1" as="geometry">
            <mxPoint x="-2" as="offset" />
          </mxGeometry>
        </mxCell>
        <mxCell id="C8pxyxYQxWnQxHPLgFTt-9" value="" style="endArrow=oval;html=1;rounded=0;startArrow=none;startFill=0;endFill=0;" parent="1" edge="1">
          <mxGeometry width="50" height="50" relative="1" as="geometry">
            <mxPoint x="640" y="90" as="sourcePoint" />
            <mxPoint x="639" y="45" as="targetPoint" />
          </mxGeometry>
        </mxCell>
        <mxCell id="C8pxyxYQxWnQxHPLgFTt-10" value="" style="endArrow=oval;html=1;rounded=0;startArrow=none;startFill=0;endFill=0;exitX=0.446;exitY=0.023;exitDx=0;exitDy=0;exitPerimeter=0;entryX=0.625;entryY=1;entryDx=0;entryDy=0;entryPerimeter=0;" parent="1" source="C8pxyxYQxWnQxHPLgFTt-2" edge="1" target="C8pxyxYQxWnQxHPLgFTt-12">
          <mxGeometry width="50" height="50" relative="1" as="geometry">
            <mxPoint x="680" y="80" as="sourcePoint" />
            <mxPoint x="681" y="50" as="targetPoint" />
          </mxGeometry>
        </mxCell>
        <mxCell id="C8pxyxYQxWnQxHPLgFTt-11" value="citta" style="text;html=1;strokeColor=none;fillColor=none;align=center;verticalAlign=middle;whiteSpace=wrap;rounded=0;" parent="1" vertex="1">
          <mxGeometry x="605" y="10" width="60" height="30" as="geometry" />
        </mxCell>
        <mxCell id="C8pxyxYQxWnQxHPLgFTt-12" value="cap" style="text;html=1;align=center;verticalAlign=middle;resizable=0;points=[];autosize=1;strokeColor=none;fillColor=none;" parent="1" vertex="1">
          <mxGeometry x="655" y="10" width="40" height="30" as="geometry" />
        </mxCell>
        <mxCell id="C8pxyxYQxWnQxHPLgFTt-13" value="via" style="text;html=1;align=center;verticalAlign=middle;resizable=0;points=[];autosize=1;strokeColor=none;fillColor=none;" parent="1" vertex="1">
          <mxGeometry x="685" y="10" width="40" height="30" as="geometry" />
        </mxCell>
        <mxCell id="C8pxyxYQxWnQxHPLgFTt-15" value="" style="endArrow=oval;html=1;rounded=0;endFill=0;entryX=0.633;entryY=1.017;entryDx=0;entryDy=0;entryPerimeter=0;" parent="1" target="C8pxyxYQxWnQxHPLgFTt-13" edge="1">
          <mxGeometry width="50" height="50" relative="1" as="geometry">
            <mxPoint x="710" y="90" as="sourcePoint" />
            <mxPoint x="710" y="50" as="targetPoint" />
          </mxGeometry>
        </mxCell>
        <mxCell id="C8pxyxYQxWnQxHPLgFTt-16" value="" style="endArrow=oval;html=1;rounded=0;entryX=0.25;entryY=1;entryDx=0;entryDy=0;endFill=0;" parent="1" target="C8pxyxYQxWnQxHPLgFTt-17" edge="1">
          <mxGeometry width="50" height="50" relative="1" as="geometry">
            <mxPoint x="740" y="90" as="sourcePoint" />
            <mxPoint x="743.7499999999998" y="42.66999999999996" as="targetPoint" />
            <Array as="points" />
          </mxGeometry>
        </mxCell>
        <mxCell id="C8pxyxYQxWnQxHPLgFTt-17" value="civico" style="text;html=1;strokeColor=none;fillColor=none;align=center;verticalAlign=middle;whiteSpace=wrap;rounded=0;" parent="1" vertex="1">
          <mxGeometry x="725" y="10" width="60" height="30" as="geometry" />
        </mxCell>
        <mxCell id="C8pxyxYQxWnQxHPLgFTt-21" value="" style="endArrow=oval;html=1;rounded=0;endFill=1;" parent="1" edge="1">
          <mxGeometry width="50" height="50" relative="1" as="geometry">
            <mxPoint x="640" y="60" as="sourcePoint" />
            <mxPoint x="760" y="60" as="targetPoint" />
          </mxGeometry>
        </mxCell>
      </root>
    </mxGraphModel>
  </diagram>
</mxfile>
